<svg xmlns="http://www.w3.org/2000/svg" xmlns:xlink="http://www.w3.org/1999/xlink" width="1080" zoomAndPan="magnify" viewBox="0 0 810 809.999993" height="1080" preserveAspectRatio="xMidYMid meet" version="1.0"><path fill="#ffffff" d="M 447.886719 424.199219 C 512.671875 424.199219 580.507812 370.34375 584.902344 288.578125 C 587.300781 243.878906 622.816406 210.496094 643.265625 200.835938 C 681.765625 182.65625 706.890625 183.496094 758.730469 215.84375 C 800.871094 242.136719 800.714844 283.109375 792.511719 326.085938 C 778.304688 400.53125 705.984375 408.839844 691.035156 407.101562 C 596.574219 396.113281 596.773438 431.78125 489.9375 459.058594 C 418.558594 477.285156 345.195312 439.476562 263.765625 581.804688 C 226.558594 646.84375 141.023438 738.074219 50.835938 676.058594 C 7.71875 646.402344 11.152344 555.367188 47.070312 512.101562 C 73.425781 480.351562 147.023438 480.089844 168.046875 493.164062 C 299.191406 574.6875 301.214844 487.71875 303.921875 465.121094 C 306.195312 446.175781 283.859375 414.398438 256.183594 402.234375 C 224.011719 388.078125 230.519531 391.875 195.621094 378.554688 C 147.523438 360.203125 130.636719 292.222656 151.695312 245.128906 C 164.386719 216.757812 194.648438 195.621094 216.765625 190.050781 C 237.585938 184.800781 286.703125 183.683594 325.222656 225.988281 C 356.761719 260.632812 348.433594 307.90625 332.714844 340.859375 C 322.933594 361.363281 331.824219 380.191406 338.386719 390.871094 C 355.261719 418.320312 400.636719 424.207031 447.886719 424.207031 Z M 447.886719 424.199219 " fill-opacity="1" fill-rule="nonzero"/><path fill="#ffffff" d="M 561.226562 208.53125 C 561.226562 210.09375 561.1875 211.652344 561.109375 213.214844 C 561.035156 214.773438 560.917969 216.332031 560.765625 217.886719 C 560.613281 219.441406 560.421875 220.992188 560.191406 222.539062 C 559.960938 224.082031 559.695312 225.621094 559.390625 227.15625 C 559.085938 228.6875 558.742188 230.210938 558.363281 231.726562 C 557.984375 233.242188 557.566406 234.746094 557.113281 236.242188 C 556.660156 237.738281 556.171875 239.222656 555.644531 240.691406 C 555.117188 242.164062 554.554688 243.621094 553.957031 245.0625 C 553.359375 246.507812 552.726562 247.933594 552.058594 249.347656 C 551.390625 250.761719 550.6875 252.15625 549.953125 253.53125 C 549.214844 254.910156 548.445312 256.269531 547.644531 257.609375 C 546.839844 258.949219 546.003906 260.269531 545.136719 261.570312 C 544.269531 262.867188 543.367188 264.144531 542.4375 265.398438 C 541.507812 266.65625 540.546875 267.886719 539.554688 269.09375 C 538.5625 270.300781 537.542969 271.484375 536.496094 272.640625 C 535.445312 273.800781 534.367188 274.929688 533.261719 276.035156 C 532.160156 277.140625 531.027344 278.21875 529.871094 279.265625 C 528.710938 280.316406 527.527344 281.335938 526.320312 282.328125 C 525.113281 283.320312 523.882812 284.28125 522.628906 285.210938 C 521.371094 286.140625 520.09375 287.039062 518.796875 287.910156 C 517.496094 288.777344 516.175781 289.613281 514.835938 290.414062 C 513.496094 291.21875 512.136719 291.988281 510.761719 292.726562 C 509.382812 293.460938 507.988281 294.164062 506.574219 294.832031 C 505.164062 295.5 503.734375 296.132812 502.292969 296.730469 C 500.847656 297.328125 499.390625 297.890625 497.917969 298.417969 C 496.449219 298.941406 494.964844 299.433594 493.46875 299.886719 C 491.976562 300.339844 490.46875 300.757812 488.953125 301.136719 C 487.4375 301.515625 485.914062 301.859375 484.382812 302.164062 C 482.851562 302.46875 481.3125 302.734375 479.765625 302.964844 C 478.21875 303.195312 476.667969 303.382812 475.113281 303.539062 C 473.558594 303.691406 472.003906 303.804688 470.441406 303.882812 C 468.882812 303.960938 467.320312 303.996094 465.757812 303.996094 C 464.195312 303.996094 462.632812 303.960938 461.074219 303.882812 C 459.511719 303.804688 457.953125 303.691406 456.398438 303.539062 C 454.84375 303.382812 453.296875 303.195312 451.75 302.964844 C 450.203125 302.734375 448.664062 302.46875 447.132812 302.164062 C 445.601562 301.859375 444.078125 301.515625 442.5625 301.136719 C 441.046875 300.757812 439.539062 300.339844 438.042969 299.886719 C 436.550781 299.433594 435.066406 298.941406 433.59375 298.417969 C 432.125 297.890625 430.667969 297.328125 429.222656 296.730469 C 427.78125 296.132812 426.351562 295.5 424.941406 294.832031 C 423.527344 294.164062 422.132812 293.460938 420.753906 292.726562 C 419.375 291.988281 418.015625 291.21875 416.675781 290.414062 C 415.335938 289.613281 414.019531 288.777344 412.71875 287.910156 C 411.417969 287.039062 410.140625 286.140625 408.886719 285.210938 C 407.632812 284.28125 406.402344 283.320312 405.195312 282.328125 C 403.984375 281.335938 402.804688 280.316406 401.644531 279.265625 C 400.488281 278.21875 399.355469 277.140625 398.25 276.035156 C 397.148438 274.929688 396.070312 273.800781 395.019531 272.640625 C 393.972656 271.484375 392.953125 270.300781 391.960938 269.09375 C 390.96875 267.886719 390.007812 266.65625 389.078125 265.398438 C 388.148438 264.144531 387.246094 262.867188 386.378906 261.570312 C 385.511719 260.269531 384.675781 258.949219 383.871094 257.609375 C 383.070312 256.269531 382.300781 254.910156 381.5625 253.53125 C 380.824219 252.15625 380.125 250.761719 379.457031 249.347656 C 378.789062 247.933594 378.15625 246.507812 377.558594 245.0625 C 376.960938 243.621094 376.398438 242.164062 375.871094 240.691406 C 375.34375 239.222656 374.855469 237.738281 374.402344 236.242188 C 373.945312 234.746094 373.53125 233.242188 373.152344 231.726562 C 372.769531 230.210938 372.429688 228.6875 372.125 227.15625 C 371.820312 225.621094 371.550781 224.082031 371.324219 222.539062 C 371.09375 220.992188 370.902344 219.441406 370.75 217.886719 C 370.597656 216.332031 370.480469 214.773438 370.40625 213.214844 C 370.328125 211.652344 370.289062 210.09375 370.289062 208.53125 C 370.289062 206.96875 370.328125 205.40625 370.40625 203.84375 C 370.480469 202.285156 370.597656 200.726562 370.75 199.171875 C 370.902344 197.617188 371.09375 196.066406 371.324219 194.523438 C 371.550781 192.976562 371.820312 191.4375 372.125 189.90625 C 372.429688 188.371094 372.769531 186.847656 373.152344 185.332031 C 373.53125 183.816406 373.945312 182.3125 374.402344 180.816406 C 374.855469 179.320312 375.34375 177.839844 375.871094 176.367188 C 376.398438 174.898438 376.960938 173.441406 377.558594 171.996094 C 378.15625 170.550781 378.789062 169.125 379.457031 167.710938 C 380.125 166.300781 380.824219 164.90625 381.5625 163.527344 C 382.300781 162.148438 383.070312 160.789062 383.871094 159.449219 C 384.675781 158.109375 385.511719 156.789062 386.378906 155.492188 C 387.246094 154.191406 388.148438 152.914062 389.078125 151.660156 C 390.007812 150.40625 390.96875 149.171875 391.960938 147.964844 C 392.953125 146.757812 393.972656 145.574219 395.019531 144.417969 C 396.070312 143.261719 397.148438 142.128906 398.25 141.023438 C 399.355469 139.917969 400.488281 138.84375 401.644531 137.792969 C 402.804688 136.742188 403.984375 135.722656 405.195312 134.734375 C 406.402344 133.742188 407.632812 132.78125 408.886719 131.851562 C 410.140625 130.917969 411.417969 130.019531 412.71875 129.152344 C 414.019531 128.285156 415.335938 127.449219 416.675781 126.644531 C 418.015625 125.839844 419.375 125.070312 420.753906 124.335938 C 422.132812 123.597656 423.527344 122.894531 424.941406 122.226562 C 426.351562 121.558594 427.78125 120.925781 429.222656 120.328125 C 430.667969 119.730469 432.125 119.167969 433.59375 118.644531 C 435.066406 118.117188 436.550781 117.625 438.042969 117.171875 C 439.539062 116.71875 441.046875 116.304688 442.5625 115.921875 C 444.078125 115.542969 445.601562 115.203125 447.132812 114.898438 C 448.664062 114.59375 450.203125 114.324219 451.75 114.097656 C 453.296875 113.867188 454.84375 113.675781 456.398438 113.523438 C 457.953125 113.367188 459.511719 113.253906 461.074219 113.175781 C 462.632812 113.101562 464.195312 113.0625 465.757812 113.0625 C 467.320312 113.0625 468.882812 113.101562 470.441406 113.175781 C 472.003906 113.253906 473.558594 113.367188 475.113281 113.523438 C 476.667969 113.675781 478.21875 113.867188 479.765625 114.097656 C 481.3125 114.324219 482.851562 114.59375 484.382812 114.898438 C 485.914062 115.203125 487.4375 115.542969 488.953125 115.921875 C 490.46875 116.304688 491.976562 116.71875 493.46875 117.171875 C 494.964844 117.625 496.449219 118.117188 497.917969 118.644531 C 499.390625 119.167969 500.847656 119.730469 502.292969 120.328125 C 503.734375 120.925781 505.164062 121.558594 506.574219 122.226562 C 507.988281 122.894531 509.382812 123.597656 510.761719 124.335938 C 512.136719 125.070312 513.496094 125.839844 514.835938 126.644531 C 516.175781 127.449219 517.496094 128.285156 518.796875 129.152344 C 520.09375 130.019531 521.371094 130.917969 522.628906 131.851562 C 523.882812 132.78125 525.113281 133.742188 526.320312 134.734375 C 527.527344 135.722656 528.710938 136.742188 529.871094 137.792969 C 531.027344 138.84375 532.160156 139.917969 533.261719 141.023438 C 534.367188 142.128906 535.445312 143.261719 536.496094 144.417969 C 537.542969 145.574219 538.5625 146.757812 539.554688 147.964844 C 540.546875 149.171875 541.507812 150.40625 542.4375 151.660156 C 543.367188 152.914062 544.269531 154.191406 545.136719 155.492188 C 546.003906 156.789062 546.839844 158.109375 547.644531 159.449219 C 548.445312 160.789062 549.214844 162.148438 549.953125 163.527344 C 550.6875 164.90625 551.390625 166.300781 552.058594 167.710938 C 552.726562 169.125 553.359375 170.550781 553.957031 171.996094 C 554.554688 173.441406 555.117188 174.898438 555.644531 176.367188 C 556.171875 177.839844 556.660156 179.320312 557.113281 180.816406 C 557.566406 182.3125 557.984375 183.816406 558.363281 185.332031 C 558.742188 186.847656 559.085938 188.371094 559.390625 189.90625 C 559.695312 191.4375 559.960938 192.976562 560.191406 194.523438 C 560.421875 196.066406 560.613281 197.617188 560.765625 199.171875 C 560.917969 200.726562 561.035156 202.285156 561.109375 203.84375 C 561.1875 205.40625 561.226562 206.96875 561.226562 208.53125 Z M 561.226562 208.53125 " fill-opacity="1" fill-rule="nonzero"/><path fill="#ffffff" d="M 346.605469 288.578125 C 346.605469 290.25 346.5625 291.925781 346.480469 293.597656 C 346.398438 295.269531 346.277344 296.9375 346.113281 298.601562 C 345.949219 300.269531 345.742188 301.929688 345.496094 303.585938 C 345.253906 305.242188 344.964844 306.890625 344.640625 308.53125 C 344.3125 310.175781 343.945312 311.808594 343.539062 313.429688 C 343.132812 315.054688 342.6875 316.667969 342.199219 318.269531 C 341.714844 319.871094 341.191406 321.460938 340.625 323.035156 C 340.0625 324.613281 339.460938 326.171875 338.820312 327.71875 C 338.179688 329.265625 337.5 330.796875 336.785156 332.308594 C 336.070312 333.824219 335.316406 335.316406 334.527344 336.792969 C 333.738281 338.269531 332.914062 339.726562 332.050781 341.164062 C 331.191406 342.597656 330.296875 344.011719 329.367188 345.402344 C 328.4375 346.796875 327.472656 348.164062 326.476562 349.507812 C 325.480469 350.851562 324.449219 352.171875 323.386719 353.464844 C 322.324219 354.761719 321.230469 356.027344 320.109375 357.269531 C 318.984375 358.507812 317.828125 359.71875 316.644531 360.902344 C 315.460938 362.085938 314.25 363.242188 313.011719 364.367188 C 311.769531 365.488281 310.503906 366.582031 309.207031 367.644531 C 307.914062 368.707031 306.59375 369.738281 305.25 370.734375 C 303.90625 371.730469 302.539062 372.695312 301.144531 373.625 C 299.753906 374.554688 298.339844 375.449219 296.90625 376.308594 C 295.46875 377.171875 294.011719 377.996094 292.535156 378.785156 C 291.058594 379.574219 289.566406 380.328125 288.050781 381.042969 C 286.539062 381.757812 285.007812 382.4375 283.460938 383.078125 C 281.917969 383.71875 280.355469 384.320312 278.777344 384.882812 C 277.203125 385.449219 275.613281 385.972656 274.011719 386.457031 C 272.410156 386.945312 270.796875 387.390625 269.171875 387.796875 C 267.550781 388.203125 265.917969 388.570312 264.273438 388.898438 C 262.632812 389.222656 260.984375 389.511719 259.328125 389.753906 C 257.671875 390 256.011719 390.207031 254.34375 390.371094 C 252.679688 390.535156 251.011719 390.65625 249.339844 390.738281 C 247.667969 390.820312 245.992188 390.863281 244.320312 390.863281 C 242.644531 390.863281 240.972656 390.820312 239.300781 390.738281 C 237.628906 390.65625 235.960938 390.535156 234.292969 390.371094 C 232.628906 390.207031 230.96875 390 229.3125 389.753906 C 227.65625 389.511719 226.007812 389.222656 224.363281 388.898438 C 222.722656 388.570312 221.089844 388.203125 219.464844 387.796875 C 217.84375 387.390625 216.230469 386.945312 214.628906 386.457031 C 213.027344 385.972656 211.4375 385.449219 209.859375 384.882812 C 208.285156 384.320312 206.722656 383.71875 205.175781 383.078125 C 203.628906 382.4375 202.101562 381.757812 200.585938 381.042969 C 199.074219 380.328125 197.578125 379.574219 196.101562 378.785156 C 194.625 377.996094 193.171875 377.171875 191.734375 376.308594 C 190.300781 375.449219 188.886719 374.554688 187.492188 373.625 C 186.101562 372.695312 184.734375 371.730469 183.390625 370.734375 C 182.042969 369.738281 180.726562 368.707031 179.429688 367.644531 C 178.136719 366.582031 176.871094 365.488281 175.628906 364.367188 C 174.390625 363.242188 173.175781 362.085938 171.992188 360.902344 C 170.808594 359.71875 169.65625 358.507812 168.53125 357.269531 C 167.40625 356.027344 166.316406 354.761719 165.253906 353.464844 C 164.191406 352.171875 163.160156 350.851562 162.164062 349.507812 C 161.167969 348.164062 160.203125 346.796875 159.273438 345.402344 C 158.34375 344.011719 157.449219 342.597656 156.585938 341.164062 C 155.726562 339.726562 154.902344 338.269531 154.113281 336.792969 C 153.324219 335.316406 152.570312 333.824219 151.855469 332.308594 C 151.140625 330.796875 150.460938 329.265625 149.820312 327.71875 C 149.179688 326.171875 148.578125 324.613281 148.015625 323.035156 C 147.449219 321.460938 146.925781 319.871094 146.4375 318.269531 C 145.953125 316.667969 145.507812 315.054688 145.101562 313.429688 C 144.695312 311.808594 144.328125 310.175781 144 308.53125 C 143.671875 306.890625 143.386719 305.242188 143.140625 303.585938 C 142.894531 301.929688 142.691406 300.269531 142.527344 298.601562 C 142.363281 296.9375 142.242188 295.269531 142.15625 293.597656 C 142.074219 291.925781 142.035156 290.25 142.035156 288.578125 C 142.035156 286.902344 142.074219 285.230469 142.15625 283.558594 C 142.242188 281.886719 142.363281 280.21875 142.527344 278.550781 C 142.691406 276.886719 142.894531 275.226562 143.140625 273.570312 C 143.386719 271.914062 143.671875 270.265625 144 268.621094 C 144.328125 266.980469 144.695312 265.347656 145.101562 263.722656 C 145.507812 262.101562 145.953125 260.488281 146.4375 258.886719 C 146.925781 257.285156 147.449219 255.695312 148.015625 254.117188 C 148.578125 252.542969 149.179688 250.980469 149.820312 249.433594 C 150.460938 247.886719 151.140625 246.359375 151.855469 244.84375 C 152.570312 243.332031 153.324219 241.835938 154.113281 240.359375 C 154.902344 238.882812 155.726562 237.429688 156.585938 235.992188 C 157.449219 234.558594 158.34375 233.144531 159.273438 231.75 C 160.203125 230.359375 161.167969 228.992188 162.164062 227.644531 C 163.160156 226.300781 164.191406 224.984375 165.253906 223.6875 C 166.316406 222.394531 167.40625 221.128906 168.53125 219.886719 C 169.65625 218.648438 170.808594 217.433594 171.992188 216.25 C 173.175781 215.066406 174.390625 213.914062 175.628906 212.789062 C 176.871094 211.664062 178.136719 210.570312 179.429688 209.511719 C 180.726562 208.449219 182.042969 207.417969 183.390625 206.421875 C 184.734375 205.425781 186.101562 204.460938 187.492188 203.53125 C 188.886719 202.601562 190.300781 201.707031 191.734375 200.84375 C 193.171875 199.984375 194.625 199.160156 196.101562 198.371094 C 197.578125 197.582031 199.074219 196.828125 200.585938 196.113281 C 202.101562 195.398438 203.628906 194.71875 205.175781 194.078125 C 206.722656 193.4375 208.285156 192.835938 209.859375 192.273438 C 211.4375 191.707031 213.027344 191.183594 214.628906 190.695312 C 216.230469 190.210938 217.84375 189.765625 219.464844 189.359375 C 221.089844 188.949219 222.722656 188.585938 224.363281 188.257812 C 226.007812 187.929688 227.65625 187.644531 229.3125 187.398438 C 230.96875 187.152344 232.628906 186.949219 234.292969 186.785156 C 235.960938 186.621094 237.628906 186.496094 239.300781 186.414062 C 240.972656 186.332031 242.644531 186.292969 244.320312 186.292969 C 245.992188 186.292969 247.667969 186.332031 249.339844 186.414062 C 251.011719 186.496094 252.679688 186.621094 254.34375 186.785156 C 256.011719 186.949219 257.671875 187.152344 259.328125 187.398438 C 260.984375 187.644531 262.632812 187.929688 264.273438 188.257812 C 265.917969 188.585938 267.550781 188.949219 269.171875 189.359375 C 270.796875 189.765625 272.410156 190.210938 274.011719 190.695312 C 275.613281 191.183594 277.203125 191.707031 278.777344 192.273438 C 280.355469 192.835938 281.917969 193.4375 283.460938 194.078125 C 285.007812 194.71875 286.539062 195.398438 288.050781 196.113281 C 289.566406 196.828125 291.058594 197.582031 292.535156 198.371094 C 294.011719 199.160156 295.46875 199.984375 296.90625 200.84375 C 298.339844 201.707031 299.753906 202.601562 301.144531 203.53125 C 302.539062 204.460938 303.90625 205.425781 305.25 206.421875 C 306.59375 207.417969 307.914062 208.449219 309.207031 209.511719 C 310.503906 210.570312 311.769531 211.664062 313.011719 212.789062 C 314.25 213.914062 315.460938 215.066406 316.644531 216.25 C 317.828125 217.433594 318.984375 218.648438 320.109375 219.886719 C 321.230469 221.128906 322.324219 222.394531 323.386719 223.6875 C 324.449219 224.984375 325.480469 226.300781 326.476562 227.644531 C 327.472656 228.992188 328.4375 230.359375 329.367188 231.75 C 330.296875 233.144531 331.191406 234.558594 332.050781 235.992188 C 332.914062 237.429688 333.738281 238.882812 334.527344 240.359375 C 335.316406 241.835938 336.070312 243.332031 336.785156 244.84375 C 337.5 246.359375 338.179688 247.886719 338.820312 249.433594 C 339.460938 250.980469 340.0625 252.542969 340.625 254.117188 C 341.191406 255.695312 341.714844 257.285156 342.199219 258.886719 C 342.6875 260.488281 343.132812 262.101562 343.539062 263.722656 C 343.945312 265.347656 344.3125 266.980469 344.640625 268.621094 C 344.964844 270.265625 345.253906 271.914062 345.496094 273.570312 C 345.742188 275.226562 345.949219 276.886719 346.113281 278.550781 C 346.277344 280.21875 346.398438 281.886719 346.480469 283.558594 C 346.5625 285.230469 346.605469 286.902344 346.605469 288.578125 Z M 346.605469 288.578125 " fill-opacity="1" fill-rule="nonzero"/><path fill="#ffffff" d="M 223.738281 588.128906 C 223.738281 589.910156 223.695312 591.6875 223.609375 593.464844 C 223.523438 595.246094 223.390625 597.019531 223.214844 598.792969 C 223.042969 600.566406 222.824219 602.332031 222.5625 604.09375 C 222.300781 605.855469 221.996094 607.609375 221.648438 609.355469 C 221.300781 611.101562 220.910156 612.839844 220.480469 614.566406 C 220.046875 616.292969 219.570312 618.007812 219.054688 619.714844 C 218.539062 621.417969 217.980469 623.109375 217.378906 624.785156 C 216.78125 626.460938 216.140625 628.121094 215.457031 629.765625 C 214.777344 631.414062 214.054688 633.039062 213.292969 634.648438 C 212.53125 636.257812 211.730469 637.851562 210.890625 639.421875 C 210.050781 640.992188 209.175781 642.539062 208.257812 644.066406 C 207.34375 645.59375 206.390625 647.097656 205.402344 648.578125 C 204.414062 650.058594 203.386719 651.515625 202.328125 652.945312 C 201.265625 654.375 200.171875 655.777344 199.042969 657.15625 C 197.910156 658.53125 196.75 659.878906 195.554688 661.199219 C 194.355469 662.519531 193.128906 663.808594 191.871094 665.066406 C 190.609375 666.328125 189.320312 667.554688 188.003906 668.75 C 186.683594 669.945312 185.335938 671.109375 183.957031 672.238281 C 182.582031 673.367188 181.179688 674.464844 179.746094 675.523438 C 178.316406 676.585938 176.863281 677.609375 175.382812 678.597656 C 173.902344 679.589844 172.398438 680.542969 170.871094 681.457031 C 169.34375 682.371094 167.792969 683.25 166.222656 684.089844 C 164.652344 684.929688 163.0625 685.730469 161.453125 686.492188 C 159.84375 687.25 158.214844 687.972656 156.570312 688.65625 C 154.925781 689.335938 153.261719 689.976562 151.585938 690.578125 C 149.910156 691.175781 148.21875 691.734375 146.515625 692.253906 C 144.8125 692.769531 143.097656 693.242188 141.367188 693.675781 C 139.640625 694.109375 137.902344 694.5 136.15625 694.847656 C 134.410156 695.195312 132.65625 695.5 130.894531 695.757812 C 129.132812 696.019531 127.367188 696.238281 125.59375 696.414062 C 123.824219 696.589844 122.046875 696.71875 120.269531 696.804688 C 118.492188 696.894531 116.710938 696.9375 114.929688 696.9375 C 113.148438 696.9375 111.371094 696.894531 109.589844 696.804688 C 107.8125 696.71875 106.035156 696.589844 104.265625 696.414062 C 102.492188 696.238281 100.726562 696.019531 98.964844 695.757812 C 97.203125 695.5 95.449219 695.195312 93.703125 694.847656 C 91.957031 694.5 90.21875 694.109375 88.492188 693.675781 C 86.765625 693.242188 85.046875 692.769531 83.34375 692.253906 C 81.640625 691.734375 79.949219 691.175781 78.273438 690.578125 C 76.597656 689.976562 74.933594 689.335938 73.289062 688.65625 C 71.644531 687.972656 70.015625 687.25 68.40625 686.492188 C 66.796875 685.730469 65.207031 684.929688 63.636719 684.089844 C 62.066406 683.25 60.519531 682.371094 58.992188 681.457031 C 57.464844 680.542969 55.960938 679.589844 54.476562 678.601562 C 52.996094 677.609375 51.542969 676.585938 50.113281 675.523438 C 48.679688 674.464844 47.277344 673.367188 45.902344 672.238281 C 44.523438 671.109375 43.175781 669.945312 41.859375 668.75 C 40.539062 667.554688 39.25 666.328125 37.988281 665.066406 C 36.730469 663.808594 35.503906 662.519531 34.308594 661.199219 C 33.109375 659.878906 31.949219 658.53125 30.820312 657.15625 C 29.6875 655.777344 28.59375 654.375 27.53125 652.945312 C 26.472656 651.515625 25.445312 650.058594 24.457031 648.578125 C 23.46875 647.097656 22.515625 645.59375 21.601562 644.066406 C 20.683594 642.539062 19.808594 640.992188 18.96875 639.421875 C 18.128906 637.851562 17.328125 636.257812 16.566406 634.648438 C 15.804688 633.039062 15.085938 631.414062 14.402344 629.765625 C 13.722656 628.121094 13.082031 626.460938 12.480469 624.785156 C 11.878906 623.109375 11.320312 621.417969 10.804688 619.714844 C 10.289062 618.007812 9.8125 616.292969 9.382812 614.566406 C 8.949219 612.839844 8.558594 611.101562 8.210938 609.355469 C 7.863281 607.609375 7.558594 605.855469 7.296875 604.09375 C 7.035156 602.332031 6.820312 600.566406 6.644531 598.792969 C 6.46875 597.019531 6.339844 595.246094 6.25 593.464844 C 6.164062 591.6875 6.121094 589.910156 6.121094 588.128906 C 6.121094 586.347656 6.164062 584.566406 6.25 582.789062 C 6.339844 581.011719 6.46875 579.234375 6.644531 577.460938 C 6.820312 575.691406 7.035156 573.921875 7.296875 572.160156 C 7.558594 570.398438 7.863281 568.644531 8.210938 566.898438 C 8.558594 565.152344 8.949219 563.417969 9.382812 561.6875 C 9.8125 559.960938 10.289062 558.246094 10.804688 556.542969 C 11.320312 554.835938 11.878906 553.148438 12.480469 551.46875 C 13.082031 549.792969 13.722656 548.132812 14.402344 546.488281 C 15.085938 544.84375 15.804688 543.214844 16.566406 541.605469 C 17.328125 539.996094 18.128906 538.40625 18.96875 536.835938 C 19.808594 535.265625 20.683594 533.714844 21.601562 532.1875 C 22.515625 530.660156 23.46875 529.15625 24.457031 527.675781 C 25.445312 526.195312 26.472656 524.738281 27.53125 523.308594 C 28.59375 521.878906 29.6875 520.476562 30.820312 519.097656 C 31.949219 517.722656 33.109375 516.375 34.308594 515.054688 C 35.503906 513.734375 36.730469 512.445312 37.988281 511.1875 C 39.25 509.929688 40.539062 508.699219 41.859375 507.503906 C 43.175781 506.308594 44.523438 505.144531 45.902344 504.015625 C 47.277344 502.886719 48.679688 501.792969 50.113281 500.730469 C 51.542969 499.667969 52.996094 498.644531 54.476562 497.65625 C 55.960938 496.664062 57.464844 495.714844 58.992188 494.796875 C 60.519531 493.882812 62.066406 493.003906 63.636719 492.164062 C 65.207031 491.324219 66.796875 490.527344 68.40625 489.765625 C 70.015625 489.003906 71.644531 488.28125 73.289062 487.601562 C 74.933594 486.917969 76.597656 486.277344 78.273438 485.679688 C 79.949219 485.078125 81.640625 484.519531 83.34375 484.003906 C 85.046875 483.484375 86.765625 483.011719 88.492188 482.578125 C 90.21875 482.144531 91.957031 481.753906 93.703125 481.410156 C 95.449219 481.0625 97.203125 480.757812 98.964844 480.496094 C 100.726562 480.234375 102.492188 480.015625 104.265625 479.839844 C 106.035156 479.667969 107.8125 479.535156 109.589844 479.449219 C 111.371094 479.359375 113.148438 479.316406 114.929688 479.316406 C 116.710938 479.316406 118.492188 479.359375 120.269531 479.449219 C 122.046875 479.535156 123.824219 479.667969 125.59375 479.839844 C 127.367188 480.015625 129.132812 480.234375 130.894531 480.496094 C 132.65625 480.757812 134.410156 481.0625 136.15625 481.410156 C 137.90625 481.753906 139.640625 482.144531 141.367188 482.578125 C 143.097656 483.011719 144.8125 483.484375 146.515625 484.003906 C 148.21875 484.519531 149.910156 485.078125 151.585938 485.679688 C 153.261719 486.277344 154.925781 486.917969 156.570312 487.601562 C 158.214844 488.28125 159.84375 489.003906 161.453125 489.765625 C 163.0625 490.527344 164.652344 491.324219 166.222656 492.164062 C 167.792969 493.003906 169.34375 493.882812 170.871094 494.796875 C 172.398438 495.714844 173.902344 496.664062 175.382812 497.65625 C 176.863281 498.644531 178.316406 499.667969 179.746094 500.730469 C 181.179688 501.792969 182.582031 502.886719 183.957031 504.015625 C 185.335938 505.144531 186.683594 506.308594 188.003906 507.503906 C 189.320312 508.699219 190.609375 509.929688 191.871094 511.1875 C 193.128906 512.445312 194.355469 513.734375 195.554688 515.054688 C 196.75 516.375 197.910156 517.722656 199.042969 519.097656 C 200.171875 520.476562 201.265625 521.878906 202.328125 523.308594 C 203.386719 524.738281 204.414062 526.195312 205.402344 527.675781 C 206.390625 529.15625 207.34375 530.660156 208.257812 532.1875 C 209.175781 533.714844 210.050781 535.265625 210.890625 536.835938 C 211.730469 538.40625 212.53125 539.996094 213.292969 541.605469 C 214.054688 543.214844 214.777344 544.84375 215.457031 546.488281 C 216.140625 548.132812 216.78125 549.792969 217.378906 551.46875 C 217.980469 553.148438 218.539062 554.835938 219.054688 556.542969 C 219.570312 558.246094 220.046875 559.960938 220.480469 561.6875 C 220.910156 563.417969 221.300781 565.152344 221.648438 566.898438 C 221.996094 568.644531 222.300781 570.398438 222.5625 572.160156 C 222.824219 573.921875 223.042969 575.691406 223.214844 577.460938 C 223.390625 579.234375 223.523438 581.011719 223.609375 582.789062 C 223.695312 584.566406 223.738281 586.347656 223.738281 588.128906 Z M 223.738281 588.128906 " fill-opacity="1" fill-rule="nonzero"/><path fill="#ffffff" d="M 803.871094 297.667969 C 803.871094 299.460938 803.828125 301.25 803.742188 303.039062 C 803.652344 304.828125 803.519531 306.617188 803.34375 308.398438 C 803.167969 310.183594 802.949219 311.960938 802.6875 313.730469 C 802.425781 315.503906 802.117188 317.269531 801.769531 319.027344 C 801.417969 320.785156 801.027344 322.53125 800.589844 324.269531 C 800.15625 326.007812 799.679688 327.734375 799.15625 329.449219 C 798.636719 331.164062 798.074219 332.863281 797.472656 334.550781 C 796.867188 336.238281 796.222656 337.910156 795.539062 339.566406 C 794.851562 341.222656 794.125 342.859375 793.359375 344.476562 C 792.59375 346.097656 791.789062 347.699219 790.945312 349.277344 C 790.101562 350.859375 789.21875 352.417969 788.296875 353.953125 C 787.375 355.492188 786.417969 357.003906 785.421875 358.492188 C 784.425781 359.984375 783.394531 361.449219 782.328125 362.886719 C 781.257812 364.328125 780.15625 365.738281 779.019531 367.125 C 777.882812 368.507812 776.714844 369.867188 775.511719 371.191406 C 774.308594 372.519531 773.070312 373.816406 771.804688 375.085938 C 770.539062 376.351562 769.242188 377.585938 767.914062 378.789062 C 766.585938 379.992188 765.230469 381.164062 763.84375 382.300781 C 762.457031 383.4375 761.046875 384.539062 759.609375 385.605469 C 758.167969 386.675781 756.703125 387.707031 755.214844 388.699219 C 753.722656 389.695312 752.210938 390.65625 750.675781 391.574219 C 749.136719 392.496094 747.578125 393.378906 746 394.222656 C 744.417969 395.070312 742.816406 395.875 741.199219 396.640625 C 739.578125 397.40625 737.941406 398.132812 736.285156 398.820312 C 734.628906 399.503906 732.957031 400.148438 731.273438 400.753906 C 729.585938 401.355469 727.882812 401.917969 726.167969 402.4375 C 724.453125 402.957031 722.726562 403.4375 720.988281 403.871094 C 719.253906 404.308594 717.503906 404.699219 715.746094 405.046875 C 713.988281 405.398438 712.226562 405.703125 710.453125 405.96875 C 708.679688 406.230469 706.902344 406.449219 705.117188 406.625 C 703.335938 406.800781 701.550781 406.933594 699.757812 407.019531 C 697.96875 407.109375 696.179688 407.152344 694.386719 407.152344 C 692.59375 407.152344 690.804688 407.109375 689.015625 407.019531 C 687.226562 406.933594 685.4375 406.800781 683.65625 406.625 C 681.871094 406.449219 680.09375 406.230469 678.324219 405.96875 C 676.550781 405.703125 674.785156 405.398438 673.027344 405.046875 C 671.269531 404.699219 669.523438 404.308594 667.785156 403.871094 C 666.046875 403.4375 664.320312 402.957031 662.605469 402.4375 C 660.890625 401.917969 659.191406 401.355469 657.503906 400.753906 C 655.816406 400.148438 654.144531 399.503906 652.488281 398.820312 C 650.832031 398.132812 649.195312 397.40625 647.578125 396.640625 C 645.957031 395.875 644.355469 395.070312 642.777344 394.222656 C 641.195312 393.378906 639.636719 392.496094 638.101562 391.574219 C 636.5625 390.65625 635.050781 389.695312 633.5625 388.699219 C 632.070312 387.707031 630.605469 386.675781 629.167969 385.605469 C 627.726562 384.539062 626.316406 383.4375 624.929688 382.300781 C 623.546875 381.164062 622.1875 379.992188 620.863281 378.789062 C 619.535156 377.585938 618.238281 376.351562 616.96875 375.085938 C 615.703125 373.816406 614.46875 372.519531 613.265625 371.191406 C 612.0625 369.867188 610.890625 368.507812 609.753906 367.125 C 608.617188 365.738281 607.515625 364.328125 606.449219 362.886719 C 605.378906 361.449219 604.347656 359.984375 603.355469 358.492188 C 602.359375 357.003906 601.398438 355.492188 600.480469 353.953125 C 599.558594 352.417969 598.675781 350.859375 597.832031 349.277344 C 596.984375 347.699219 596.179688 346.097656 595.414062 344.476562 C 594.648438 342.859375 593.921875 341.222656 593.238281 339.566406 C 592.550781 337.910156 591.90625 336.238281 591.300781 334.550781 C 590.699219 332.863281 590.136719 331.164062 589.617188 329.449219 C 589.097656 327.734375 588.617188 326.007812 588.183594 324.269531 C 587.75 322.53125 587.355469 320.785156 587.007812 319.027344 C 586.65625 317.269531 586.351562 315.503906 586.085938 313.730469 C 585.824219 311.960938 585.605469 310.183594 585.429688 308.398438 C 585.253906 306.617188 585.121094 304.828125 585.035156 303.039062 C 584.945312 301.25 584.902344 299.460938 584.902344 297.667969 C 584.902344 295.875 584.945312 294.085938 585.035156 292.296875 C 585.121094 290.503906 585.253906 288.71875 585.429688 286.9375 C 585.605469 285.152344 585.824219 283.375 586.085938 281.601562 C 586.351562 279.832031 586.65625 278.066406 587.007812 276.308594 C 587.355469 274.550781 587.75 272.804688 588.183594 271.066406 C 588.617188 269.328125 589.097656 267.601562 589.617188 265.886719 C 590.136719 264.171875 590.699219 262.46875 591.300781 260.78125 C 591.90625 259.097656 592.550781 257.425781 593.238281 255.769531 C 593.921875 254.113281 594.648438 252.476562 595.414062 250.855469 C 596.179688 249.238281 596.984375 247.636719 597.832031 246.054688 C 598.675781 244.476562 599.558594 242.917969 600.480469 241.382812 C 601.398438 239.84375 602.359375 238.332031 603.355469 236.839844 C 604.347656 235.351562 605.378906 233.886719 606.449219 232.449219 C 607.515625 231.007812 608.617188 229.597656 609.753906 228.210938 C 610.890625 226.824219 612.0625 225.46875 613.265625 224.140625 C 614.46875 222.8125 615.703125 221.515625 616.96875 220.25 C 618.238281 218.984375 619.535156 217.746094 620.863281 216.542969 C 622.1875 215.339844 623.546875 214.171875 624.929688 213.035156 C 626.316406 211.898438 627.726562 210.796875 629.167969 209.726562 C 630.605469 208.660156 632.070312 207.628906 633.5625 206.632812 C 635.050781 205.636719 636.5625 204.679688 638.101562 203.757812 C 639.636719 202.839844 641.195312 201.953125 642.777344 201.109375 C 644.355469 200.265625 645.957031 199.460938 647.578125 198.695312 C 649.195312 197.929688 650.832031 197.203125 652.488281 196.515625 C 654.144531 195.832031 655.816406 195.1875 657.503906 194.582031 C 659.191406 193.980469 660.890625 193.417969 662.605469 192.898438 C 664.320312 192.375 666.046875 191.898438 667.785156 191.464844 C 669.523438 191.027344 671.269531 190.636719 673.027344 190.285156 C 674.785156 189.9375 676.550781 189.628906 678.324219 189.367188 C 680.09375 189.105469 681.871094 188.886719 683.65625 188.710938 C 685.4375 188.535156 687.226562 188.402344 689.015625 188.3125 C 690.804688 188.226562 692.59375 188.183594 694.386719 188.183594 C 696.179688 188.183594 697.96875 188.226562 699.757812 188.3125 C 701.550781 188.402344 703.335938 188.535156 705.117188 188.710938 C 706.902344 188.886719 708.679688 189.105469 710.453125 189.367188 C 712.222656 189.628906 713.988281 189.9375 715.746094 190.285156 C 717.503906 190.636719 719.25 191.027344 720.988281 191.464844 C 722.726562 191.898438 724.453125 192.375 726.167969 192.898438 C 727.882812 193.417969 729.585938 193.980469 731.273438 194.582031 C 732.957031 195.1875 734.628906 195.832031 736.285156 196.515625 C 737.941406 197.203125 739.578125 197.929688 741.199219 198.695312 C 742.816406 199.460938 744.417969 200.265625 746 201.109375 C 747.578125 201.953125 749.136719 202.839844 750.675781 203.757812 C 752.210938 204.679688 753.722656 205.636719 755.214844 206.632812 C 756.703125 207.628906 758.167969 208.660156 759.609375 209.726562 C 761.046875 210.796875 762.457031 211.898438 763.84375 213.035156 C 765.230469 214.171875 766.585938 215.339844 767.914062 216.542969 C 769.242188 217.746094 770.539062 218.984375 771.804688 220.25 C 773.070312 221.515625 774.308594 222.8125 775.511719 224.140625 C 776.714844 225.46875 777.882812 226.824219 779.019531 228.210938 C 780.15625 229.597656 781.257812 231.007812 782.328125 232.449219 C 783.394531 233.886719 784.425781 235.351562 785.421875 236.839844 C 786.417969 238.332031 787.375 239.84375 788.296875 241.382812 C 789.21875 242.917969 790.101562 244.476562 790.945312 246.054688 C 791.789062 247.636719 792.59375 249.238281 793.359375 250.855469 C 794.125 252.476562 794.851562 254.113281 795.539062 255.769531 C 796.222656 257.425781 796.867188 259.097656 797.472656 260.78125 C 798.074219 262.46875 798.636719 264.171875 799.15625 265.886719 C 799.679688 267.601562 800.15625 269.328125 800.589844 271.066406 C 801.027344 272.804688 801.417969 274.550781 801.769531 276.308594 C 802.117188 278.066406 802.425781 279.832031 802.6875 281.601562 C 802.949219 283.375 803.167969 285.152344 803.34375 286.9375 C 803.519531 288.71875 803.652344 290.503906 803.742188 292.296875 C 803.828125 294.085938 803.871094 295.875 803.871094 297.667969 Z M 803.871094 297.667969 " fill-opacity="1" fill-rule="nonzero"/><path fill="#ffffff" d="M 477.929688 594.578125 C 479.738281 630.324219 450.382812 659.675781 414.636719 657.871094 C 384.03125 656.316406 359.167969 631.453125 357.613281 600.847656 C 355.808594 565.101562 385.164062 535.746094 420.90625 537.554688 C 451.515625 539.109375 476.378906 563.96875 477.929688 594.578125 Z M 477.929688 594.578125 " fill-opacity="1" fill-rule="nonzero"/></svg>